<?xml version="1.0" encoding="utf-8"?>
<!-- Generator: Adobe Illustrator 23.0.3, SVG Export Plug-In . SVG Version: 6.00 Build 0)  -->
<svg version="1.1" id="Layer_1" xmlns="http://www.w3.org/2000/svg" xmlns:xlink="http://www.w3.org/1999/xlink" x="0px" y="0px"
	 viewBox="0 0 213.5 64.8" style="enable-background:new 0 0 213.5 64.8;" xml:space="preserve">
<style type="text/css">
	.st0{fill:#FFFFFF;}
</style>
<g>
	<g>
		<path class="st0" d="M0,0.1h3.5c0.9,0,1.8,0.2,2.5,0.7s1.3,1.1,1.8,1.9c0.4,0.8,0.6,1.7,0.6,2.7S8.2,7.3,7.8,8.1
			C7.3,8.9,6.7,9.5,6,10s-1.6,0.7-2.5,0.7H0V0.1z M3.5,9.6c0.7,0,1.4-0.2,2-0.5c0.6-0.4,1-0.9,1.4-1.5C7.2,7,7.4,6.2,7.4,5.4
			S7.2,3.9,6.9,3.2C6.5,2.6,6.1,2.1,5.5,1.7s-1.2-0.5-2-0.5H1v8.4C1,9.6,3.5,9.6,3.5,9.6z"/>
		<path class="st0" d="M11.5,0.7c0,0.2-0.1,0.4-0.2,0.5c-0.1,0.1-0.3,0.2-0.5,0.2s-0.4-0.1-0.5-0.2s-0.2-0.3-0.2-0.5
			s0.1-0.4,0.2-0.5S10.6,0,10.8,0s0.4,0.1,0.5,0.2C11.5,0.4,11.5,0.5,11.5,0.7z M11.3,10.6h-1V2.8h1V10.6z"/>
		<path class="st0" d="M19.4,10.5c-0.5-0.2-0.9-0.5-1.2-0.9v1.1h-1.1V0.1h1.1v3.7c0.3-0.4,0.7-0.7,1.2-0.9c0.5-0.2,0.9-0.3,1.4-0.3
			c0.7,0,1.3,0.2,1.9,0.5c0.6,0.4,1,0.9,1.3,1.5s0.5,1.3,0.5,2.1S24.3,8.1,24,8.8c-0.3,0.6-0.8,1.1-1.3,1.5
			c-0.6,0.4-1.2,0.5-1.9,0.5C20.3,10.8,19.9,10.7,19.4,10.5z M22.2,9.3c0.4-0.3,0.7-0.6,1-1.1c0.2-0.5,0.4-1,0.4-1.5
			c0-0.6-0.1-1.1-0.4-1.5c-0.2-0.5-0.6-0.8-1-1.1s-0.9-0.4-1.3-0.4c-0.5,0-0.9,0.1-1.3,0.4s-0.7,0.6-1,1.1c-0.2,0.5-0.4,1-0.4,1.5
			c0,0.6,0.1,1.1,0.4,1.5c0.2,0.5,0.6,0.8,1,1.1s0.8,0.4,1.3,0.4C21.3,9.7,21.8,9.6,22.2,9.3z"/>
		<path class="st0" d="M27.5,10.3C27,10,26.7,9.6,26.4,9.1C26.1,8.5,26,7.9,26,7.3V2.8h1v4.5c0,0.4,0.1,0.8,0.3,1.2
			c0.2,0.4,0.4,0.7,0.8,0.9c0.3,0.2,0.7,0.3,1.1,0.3s0.7-0.1,1.1-0.3c0.3-0.2,0.6-0.5,0.8-0.9c0.2-0.4,0.3-0.8,0.3-1.2V2.8h1.1v7.9
			h-1.1V9.9c-0.3,0.3-0.6,0.5-1,0.6s-0.7,0.2-1.1,0.2C28.5,10.8,28,10.6,27.5,10.3z"/>
		<path class="st0" d="M34.1,0.1h1v10.5h-1V0.1z"/>
		<path class="st0" d="M38.3,10.4c-0.5-0.2-0.9-0.5-1.1-0.9c-0.3-0.4-0.4-0.8-0.4-1.3s0.1-0.9,0.4-1.3c0.3-0.4,0.7-0.7,1.1-0.9
			c0.5-0.2,1-0.3,1.6-0.3c0.8,0,1.5,0.2,2.1,0.6V5.7c0-0.6-0.2-1.1-0.6-1.4c-0.4-0.4-0.9-0.6-1.6-0.6c-0.4,0-0.7,0.1-1.1,0.2
			c-0.3,0.2-0.6,0.4-0.8,0.7L37,4c0.3-0.4,0.7-0.8,1.2-1s1-0.4,1.6-0.4S41,2.7,41.4,3c0.5,0.3,0.9,0.6,1.2,1.1s0.4,1,0.4,1.6v5h-1
			v-0.5c-0.6,0.4-1.3,0.6-2.1,0.6C39.3,10.8,38.7,10.7,38.3,10.4z M41.3,9.3C41.8,9,42,8.6,42,8.2c0-0.4-0.2-0.8-0.6-1.1
			c-0.4-0.3-0.9-0.4-1.5-0.4s-1.1,0.1-1.5,0.4s-0.6,0.7-0.6,1.1c0,0.4,0.2,0.8,0.6,1.1c0.4,0.3,0.9,0.4,1.5,0.4
			C40.4,9.7,40.9,9.6,41.3,9.3z"/>
		<path class="st0" d="M44.7,2.8h1.1v0.7c0.3-0.3,0.6-0.5,1-0.6s0.7-0.2,1.1-0.2c0.6,0,1.1,0.2,1.6,0.5s0.9,0.7,1.1,1.3
			c0.3,0.4,0.4,1,0.4,1.6v4.5h-1V6.1c0-0.4-0.1-0.8-0.3-1.2S49.3,4.2,48.9,4c-0.3-0.2-0.7-0.3-1.1-0.3c-0.4,0-0.7,0.1-1.1,0.3
			c-0.3,0.2-0.6,0.5-0.8,0.9s-0.3,0.8-0.3,1.2v4.5h-1.1V2.8H44.7z"/>
		<path class="st0" d="M57.3,10.3c-0.5-0.3-0.9-0.8-1-1.3l1-0.3C57.4,9,57.6,9.2,58,9.4c0.3,0.2,0.7,0.3,1.2,0.3s0.9-0.1,1.3-0.4
			C60.8,9.1,61,8.8,61,8.4c0-0.3-0.1-0.5-0.4-0.8c-0.3-0.2-0.6-0.4-1-0.5L59.1,7c-0.2,0-0.4,0-0.5,0c-0.1,0-0.2,0-0.2-0.1
			c-0.6-0.1-1.1-0.4-1.4-0.8c-0.4-0.4-0.6-0.8-0.6-1.3c0-0.4,0.1-0.8,0.4-1.1c0.2-0.3,0.6-0.6,1-0.8s0.9-0.3,1.4-0.3
			c0.6,0,1.2,0.1,1.6,0.5c0.5,0.3,0.8,0.7,1,1.2l-1,0.3c-0.1-0.3-0.3-0.5-0.6-0.6c-0.3-0.2-0.6-0.2-1-0.2s-0.8,0.1-1.1,0.3
			c-0.3,0.2-0.5,0.5-0.5,0.8s0.1,0.5,0.3,0.7s0.5,0.3,0.8,0.4l0,0h0.1l0.4,0c0,0,0.1,0,0.2,0c0.1,0,0.2,0,0.4,0.1
			C60.5,6.3,61,6.5,61.4,7C61.8,7.4,62,7.9,62,8.5c0,0.4-0.1,0.8-0.4,1.2c-0.3,0.4-0.6,0.6-1.1,0.9c-0.4,0.2-0.9,0.3-1.5,0.3
			C58.4,10.8,57.8,10.6,57.3,10.3z"/>
		<path class="st0" d="M65,10.3C64.5,10,64.1,9.6,63.9,9c-0.3-0.5-0.4-1.1-0.4-1.8V2.8h1.1v4.5c0,0.4,0.1,0.8,0.3,1.2
			c0.2,0.4,0.4,0.7,0.8,0.9c0.3,0.2,0.7,0.3,1.1,0.3s0.7-0.1,1.1-0.3c0.3-0.2,0.6-0.5,0.8-0.9C68.9,8.1,69,7.7,69,7.3V2.8h1.1v7.9
			H69V9.9c-0.3,0.3-0.6,0.5-1,0.6s-0.7,0.2-1.1,0.2C66,10.8,65.5,10.6,65,10.3z"/>
		<path class="st0" d="M72.8,10.2c-0.6-0.4-1-0.8-1.3-1.5c-0.4-0.6-0.5-1.2-0.5-2s0.2-1.4,0.5-2.1c0.3-0.6,0.8-1.1,1.3-1.5
			c0.6-0.4,1.2-0.5,1.9-0.5c0.5,0,1,0.1,1.5,0.3s0.9,0.5,1.2,1l-0.8,0.7c-0.3-0.3-0.5-0.5-0.9-0.7c-0.3-0.2-0.7-0.2-1.1-0.2
			c-0.5,0-0.9,0.1-1.3,0.4s-0.7,0.6-1,1.1c-0.2,0.5-0.4,1-0.4,1.5c0,0.6,0.1,1.1,0.4,1.5c0.2,0.5,0.6,0.8,1,1.1s0.8,0.4,1.3,0.4
			c0.4,0,0.7-0.1,1.1-0.2c0.3-0.2,0.6-0.4,0.9-0.7l0.8,0.7c-0.3,0.4-0.7,0.7-1.2,1c-0.5,0.2-1,0.3-1.5,0.3
			C74,10.8,73.4,10.6,72.8,10.2z"/>
		<path class="st0" d="M80.2,0.7c0,0.2-0.1,0.4-0.2,0.5s-0.3,0.2-0.5,0.2S79.1,1.3,79,1.2s-0.2-0.3-0.2-0.5s0.1-0.4,0.2-0.5
			S79.3,0,79.5,0s0.4,0.1,0.5,0.2C80.2,0.4,80.2,0.5,80.2,0.7z M80,10.6h-1V2.8h1V10.6z"/>
		<path class="st0" d="M85.3,13.2l0.5-0.9c0.2,0.1,0.4,0.2,0.7,0.2c0.7,0,1.2-0.5,1.6-1.6l0.1-0.2l-3-7.9h1.1l2.4,6.4l2.4-6.4h1.1
			L89,11.3c-0.6,1.5-1.4,2.3-2.6,2.3C86.1,13.5,85.7,13.4,85.3,13.2z"/>
		<path class="st0" d="M94.1,10.4c-0.5-0.2-0.9-0.5-1.1-0.9c-0.3-0.4-0.4-0.8-0.4-1.3s0.1-0.9,0.4-1.3s0.7-0.7,1.1-0.9
			c0.5-0.2,1-0.3,1.6-0.3c0.8,0,1.5,0.2,2.1,0.6V5.7c0-0.6-0.2-1.1-0.6-1.4c-0.4-0.4-0.9-0.6-1.6-0.6c-0.4,0-0.7,0.1-1.1,0.2
			c-0.3,0.2-0.6,0.4-0.8,0.7L92.9,4c0.3-0.4,0.7-0.8,1.2-1s1-0.4,1.6-0.4s1.2,0.1,1.7,0.4s0.9,0.6,1.2,1.1c0.3,0.5,0.4,1,0.4,1.6v5
			h-1v-0.5c-0.6,0.4-1.3,0.6-2.1,0.6S94.6,10.7,94.1,10.4z M97.2,9.3c0.4-0.3,0.6-0.7,0.6-1.1c0-0.4-0.2-0.8-0.6-1.1
			c-0.4-0.3-0.9-0.4-1.5-0.4s-1.1,0.1-1.5,0.4s-0.6,0.7-0.6,1.1c0,0.4,0.2,0.8,0.6,1.1s0.9,0.4,1.5,0.4C96.3,9.7,96.8,9.6,97.2,9.3z
			"/>
		<path class="st0" d="M100.6,2.8h1v0.7c0.3-0.3,0.6-0.5,1-0.6s0.7-0.2,1.1-0.2c0.6,0,1.1,0.2,1.6,0.5s0.9,0.7,1.1,1.3
			c0.3,0.5,0.4,1.1,0.4,1.7v4.5h-1V6.1c0-0.4-0.1-0.8-0.3-1.2c-0.2-0.4-0.4-0.7-0.8-0.9c-0.3-0.2-0.7-0.3-1.1-0.3s-0.7,0.1-1.1,0.3
			c-0.3,0.2-0.6,0.5-0.8,0.9c-0.2,0.4-0.3,0.8-0.3,1.2v4.5h-1V2.8H100.6z"/>
		<path class="st0" d="M110.2,13.6c-0.6-0.3-1-0.7-1.3-1.2l0.9-0.6c0.2,0.3,0.5,0.6,0.9,0.8s0.8,0.3,1.3,0.3s0.9-0.1,1.3-0.3
			s0.7-0.5,0.9-0.8c0.2-0.4,0.3-0.8,0.3-1.2v-1c-0.3,0.4-0.7,0.7-1.2,0.9s-0.9,0.3-1.5,0.3c-0.7,0-1.3-0.2-1.9-0.5
			c-0.6-0.4-1-0.8-1.3-1.5c-0.3-0.6-0.5-1.3-0.5-2.1s0.2-1.4,0.5-2.1c0.3-0.6,0.8-1.1,1.3-1.5c0.6-0.4,1.2-0.5,1.9-0.5
			c0.5,0,1,0.1,1.5,0.3s0.9,0.5,1.2,0.9v-1h1.1v7.9c0,0.6-0.2,1.2-0.5,1.7s-0.8,0.9-1.3,1.2s-1.2,0.5-1.9,0.5
			C111.3,14.1,110.7,13.9,110.2,13.6z M113.3,9.3c0.4-0.3,0.7-0.6,1-1.1c0.2-0.5,0.4-1,0.4-1.5c0-0.6-0.1-1.1-0.4-1.5
			c-0.2-0.5-0.6-0.8-1-1.1s-0.9-0.4-1.3-0.4c-0.5,0-0.9,0.1-1.3,0.4s-0.7,0.6-1,1.1c-0.2,0.5-0.4,1-0.4,1.5c0,0.6,0.1,1.1,0.4,1.5
			c0.2,0.5,0.6,0.8,1,1.1s0.8,0.4,1.3,0.4C112.4,9.7,112.9,9.6,113.3,9.3z"/>
		<path class="st0" d="M121.1,2.8h1.1v1.1c0.3-0.4,0.7-0.7,1.2-0.9s0.9-0.3,1.4-0.3c0.7,0,1.3,0.2,1.9,0.5c0.6,0.4,1,0.8,1.3,1.5
			c0.3,0.6,0.5,1.3,0.5,2.1s-0.2,1.4-0.5,2.1c-0.3,0.6-0.8,1.1-1.3,1.5c-0.6,0.4-1.2,0.5-1.9,0.5c-0.5,0-1-0.1-1.4-0.3
			c-0.5-0.2-0.9-0.5-1.2-0.9v3.7h-1.1V2.8z M126.1,9.3c0.4-0.3,0.7-0.6,1-1.1c0.2-0.5,0.4-1,0.4-1.5s-0.1-1.1-0.4-1.5
			c-0.2-0.5-0.6-0.8-1-1.1s-0.9-0.4-1.3-0.4c-0.5,0-0.9,0.1-1.3,0.4s-0.7,0.6-1,1.1c-0.2,0.5-0.4,1-0.4,1.5c0,0.6,0.1,1.1,0.4,1.5
			c0.2,0.5,0.6,0.8,1,1.1s0.8,0.4,1.3,0.4C125.3,9.7,125.7,9.6,126.1,9.3z"/>
		<path class="st0" d="M131.6,10.2c-0.6-0.4-1-0.8-1.3-1.5c-0.3-0.6-0.5-1.3-0.5-2.1s0.2-1.5,0.5-2.1s0.7-1.1,1.3-1.5
			c0.5-0.4,1.2-0.5,1.8-0.5s1.3,0.2,1.8,0.5c0.5,0.4,1,0.8,1.3,1.5c0.3,0.6,0.5,1.3,0.5,2.1v0.5h-6c0.1,0.7,0.4,1.3,0.9,1.8
			s1.1,0.7,1.7,0.7c0.4,0,0.7-0.1,1.1-0.2c0.3-0.2,0.6-0.4,0.9-0.7l0.8,0.7c-0.3,0.4-0.7,0.7-1.2,1c-0.5,0.2-1,0.3-1.5,0.3
			C132.7,10.8,132.1,10.6,131.6,10.2z M135.8,6.2c-0.1-0.7-0.4-1.3-0.8-1.8c-0.5-0.5-1-0.7-1.7-0.7s-1.2,0.2-1.7,0.7
			s-0.7,1.1-0.8,1.8H135.8z"/>
		<path class="st0" d="M138.3,2.8h1.1v0.7c0.3-0.3,0.6-0.5,1-0.6s0.7-0.2,1.1-0.2c0.6,0,1.1,0.2,1.6,0.5s0.9,0.7,1.1,1.3
			c0.3,0.5,0.4,1.1,0.4,1.7v4.5h-1.1V6.1c0-0.4-0.1-0.8-0.3-1.2s-0.4-0.7-0.8-0.9c-0.3-0.2-0.7-0.3-1.1-0.3c-0.4,0-0.7,0.1-1.1,0.3
			c-0.3,0.2-0.6,0.5-0.8,0.9s-0.3,0.8-0.3,1.2v4.5H138V2.8H138.3z"/>
		<path class="st0" d="M147.8,10.3c-0.5-0.3-0.9-0.7-1.1-1.3c-0.3-0.5-0.4-1.1-0.4-1.8V2.8h1.1v4.5c0,0.4,0.1,0.8,0.3,1.2
			s0.4,0.7,0.8,0.9c0.3,0.2,0.7,0.3,1.1,0.3c0.4,0,0.7-0.1,1.1-0.3c0.3-0.2,0.6-0.5,0.8-0.9s0.3-0.8,0.3-1.2V2.8h1.1v7.9h-1.1V9.9
			c-0.3,0.3-0.6,0.5-1,0.6s-0.7,0.2-1.1,0.2C148.8,10.8,148.3,10.6,147.8,10.3z"/>
		<path class="st0" d="M154.3,0.1h1.1v3.4c0.3-0.3,0.6-0.5,1-0.6s0.7-0.2,1.1-0.2c0.6,0,1.1,0.2,1.6,0.5s0.9,0.7,1.1,1.3
			c0.3,0.5,0.4,1.1,0.4,1.7v4.5h-1.1V6.1c0-0.4-0.1-0.8-0.3-1.2s-0.4-0.7-0.8-0.9c-0.3-0.2-0.7-0.3-1.1-0.3c-0.4,0-0.7,0.1-1.1,0.3
			c-0.3,0.2-0.6,0.5-0.8,0.9s-0.3,0.8-0.3,1.2v4.5H154V0.1H154.3z"/>
		<path class="st0" d="M166,2.8h1.1v0.9c0.3-0.3,0.7-0.6,1.1-0.8c0.4-0.2,0.8-0.3,1.3-0.3s1,0.1,1.5,0.3s0.8,0.6,1.2,1l-0.8,0.6
			c-0.2-0.3-0.5-0.5-0.8-0.7s-0.6-0.2-1-0.2s-0.8,0.1-1.2,0.4c-0.4,0.2-0.6,0.6-0.9,1c-0.2,0.4-0.3,0.9-0.3,1.4v4.2H166V2.8z"/>
		<path class="st0" d="M174.3,10.4c-0.5-0.2-0.9-0.5-1.1-0.9c-0.3-0.4-0.4-0.8-0.4-1.3s0.1-0.9,0.4-1.3c0.3-0.4,0.7-0.7,1.1-0.9
			c0.5-0.2,1-0.3,1.6-0.3c0.8,0,1.5,0.2,2.1,0.6V5.7c0-0.6-0.2-1.1-0.6-1.4c-0.4-0.4-0.9-0.6-1.6-0.6c-0.4,0-0.7,0.1-1.1,0.2
			c-0.3,0.2-0.6,0.4-0.8,0.7L173.1,4c0.3-0.4,0.7-0.8,1.2-1s1-0.4,1.6-0.4s1.2,0.1,1.6,0.4c0.5,0.3,0.9,0.6,1.2,1.1s0.4,1,0.4,1.6v5
			h-1v-0.5c-0.6,0.4-1.3,0.6-2.1,0.6C175.3,10.8,174.8,10.7,174.3,10.4z M177.4,9.3c0.4-0.3,0.6-0.7,0.6-1.1c0-0.4-0.2-0.8-0.6-1.1
			c-0.4-0.3-0.9-0.4-1.5-0.4s-1.1,0.1-1.5,0.4s-0.6,0.7-0.6,1.1c0,0.4,0.2,0.8,0.6,1.1c0.4,0.3,0.9,0.4,1.5,0.4S177,9.6,177.4,9.3z"
			/>
		<path class="st0" d="M180.7,0.1h1v3.4c0.3-0.3,0.6-0.5,1-0.6s0.7-0.2,1.1-0.2c0.6,0,1.1,0.2,1.6,0.5s0.9,0.7,1.1,1.3
			c0.3,0.5,0.4,1.1,0.4,1.7v4.5h-1V6.1c0-0.4-0.1-0.8-0.3-1.2s-0.4-0.7-0.8-0.9c-0.3-0.2-0.7-0.3-1.1-0.3c-0.4,0-0.7,0.1-1.1,0.3
			c-0.3,0.2-0.6,0.5-0.8,0.9s-0.3,0.8-0.3,1.2v4.5h-1V0.1H180.7z"/>
		<path class="st0" d="M188.8,2.8h1v0.6c0.3-0.2,0.5-0.4,0.8-0.5s0.6-0.2,1-0.2c0.5,0,0.9,0.1,1.3,0.4c0.4,0.2,0.8,0.6,1,1
			c0.3-0.4,0.6-0.7,1-1c0.4-0.2,0.9-0.4,1.4-0.4s1,0.1,1.5,0.4c0.4,0.3,0.8,0.7,1,1.1c0.3,0.5,0.4,1,0.4,1.6v4.8h-1V5.8
			c0-0.4-0.1-0.7-0.2-1.1c-0.2-0.3-0.4-0.6-0.7-0.8s-0.6-0.3-0.9-0.3c-0.3,0-0.7,0.1-0.9,0.3c-0.3,0.2-0.5,0.4-0.7,0.8
			c-0.2,0.3-0.2,0.7-0.2,1.1v4.8h-1.1V5.8c0-0.4-0.1-0.7-0.2-1.1c-0.2-0.3-0.4-0.6-0.7-0.8s-0.6-0.3-0.9-0.3c-0.3,0-0.6,0.1-0.9,0.3
			c-0.3,0.2-0.5,0.4-0.7,0.8c-0.2,0.3-0.2,0.7-0.2,1.1v4.8h-1V2.8H188.8z"/>
		<path class="st0" d="M202.2,10.4c-0.5-0.2-0.9-0.5-1.1-0.9c-0.3-0.4-0.4-0.8-0.4-1.3s0.1-0.9,0.4-1.3c0.3-0.4,0.7-0.7,1.1-0.9
			c0.5-0.2,1-0.3,1.6-0.3c0.8,0,1.5,0.2,2.1,0.6V5.7c0-0.6-0.2-1.1-0.6-1.4c-0.4-0.4-0.9-0.6-1.6-0.6c-0.4,0-0.7,0.1-1.1,0.2
			c-0.3,0.2-0.6,0.4-0.8,0.7L201,4c0.3-0.4,0.7-0.8,1.2-1s1-0.4,1.6-0.4s1.2,0.1,1.7,0.4s0.9,0.6,1.2,1.1s0.4,1,0.4,1.6v5h-1v-0.5
			c-0.6,0.4-1.3,0.6-2.1,0.6C203.2,10.8,202.7,10.7,202.2,10.4z M205.3,9.3c0.4-0.3,0.6-0.7,0.6-1.1c0-0.4-0.2-0.8-0.6-1.1
			c-0.4-0.3-0.9-0.4-1.5-0.4s-1.1,0.1-1.5,0.4s-0.6,0.7-0.6,1.1c0,0.4,0.2,0.8,0.6,1.1c0.4,0.3,0.9,0.4,1.5,0.4S204.9,9.6,205.3,9.3
			z"/>
		<path class="st0" d="M213.5,10.3c-0.4,0.3-0.9,0.5-1.4,0.5s-0.9-0.1-1.3-0.4c-0.4-0.3-0.7-0.6-0.9-1s-0.3-0.9-0.3-1.4V3.8H208v-1
			h1.6V0.1h1.1v2.6h2.3v1.1h-2.3V8c0,0.5,0.1,0.9,0.4,1.2c0.3,0.3,0.6,0.5,1.1,0.5c0.3,0,0.6-0.1,0.8-0.3L213.5,10.3z"/>
		<path class="st0" d="M25.4,18.7c0,0.2-0.1,0.4-0.2,0.5s-0.3,0.2-0.5,0.2s-0.4-0.1-0.5-0.2S24,18.9,24,18.7s0.1-0.4,0.2-0.5
			s0.3-0.2,0.5-0.2s0.4,0.1,0.5,0.2C25.3,18.4,25.4,18.5,25.4,18.7z M25.2,28.6h-1v-7.9h1V28.6z"/>
		<path class="st0" d="M24.8,31.1l0.6-0.9c0.2,0.2,0.5,0.3,0.8,0.3c0.4,0,0.8-0.2,1.1-0.5c0.3-0.3,0.4-0.8,0.4-1.3v-8h1.1v8
			c0,0.5-0.1,1-0.3,1.4c-0.2,0.4-0.5,0.8-0.9,1c-0.4,0.3-0.8,0.4-1.3,0.4C25.7,31.5,25.2,31.4,24.8,31.1z M27.7,19.1
			c-0.1-0.1-0.2-0.3-0.2-0.5s0.1-0.4,0.2-0.5s0.3-0.2,0.5-0.2s0.4,0.1,0.5,0.2s0.2,0.3,0.2,0.5s-0.1,0.4-0.2,0.5s-0.3,0.2-0.5,0.2
			C28,19.3,27.9,19.3,27.7,19.1z"/>
		<path class="st0" d="M32,18.7c0,0.2-0.1,0.4-0.2,0.5s-0.3,0.2-0.5,0.2s-0.4-0.1-0.5-0.2s-0.2-0.3-0.2-0.5s0.1-0.4,0.2-0.5
			s0.3-0.2,0.5-0.2s0.4,0.1,0.5,0.2C31.9,18.4,32,18.5,32,18.7z M31.8,28.6h-1v-7.9h1V28.6z"/>
		<path class="st0" d="M33.7,20.8h1.1v0.7c0.3-0.3,0.6-0.5,1-0.6s0.7-0.2,1.1-0.2c0.6,0,1.1,0.2,1.6,0.5s0.9,0.7,1.1,1.3
			c0.3,0.5,0.4,1.1,0.4,1.7v4.5h-1v-4.5c0-0.4-0.1-0.8-0.3-1.2c-0.2-0.4-0.4-0.7-0.8-0.9c-0.3-0.2-0.7-0.3-1.1-0.3
			c-0.4,0-0.7,0.1-1.1,0.3c-0.3,0.2-0.6,0.5-0.8,0.9s-0.3,0.8-0.3,1.2v4.5h-1.1v-7.9H33.7z"/>
		<path class="st0" d="M41.9,18.1h1v6.3l3.9-3.7h1.5l-3.7,3.5l3.7,4.4H47l-3.1-3.7l-1,0.9v2.8h-1V18.1z"/>
		<path class="st0" d="M50.3,28.4c-0.5-0.2-0.9-0.5-1.1-0.9c-0.3-0.4-0.4-0.8-0.4-1.3s0.1-0.9,0.4-1.3c0.3-0.4,0.7-0.7,1.1-0.9
			c0.5-0.2,1-0.3,1.6-0.3c0.8,0,1.5,0.2,2.1,0.6v-0.6c0-0.6-0.2-1.1-0.6-1.4c-0.4-0.4-0.9-0.6-1.6-0.6c-0.4,0-0.7,0.1-1.1,0.2
			c-0.3,0.2-0.6,0.4-0.8,0.7L49.1,22c0.3-0.4,0.7-0.8,1.2-1s1-0.4,1.6-0.4s1.2,0.1,1.6,0.4c0.5,0.3,0.9,0.6,1.2,1.1s0.4,1,0.4,1.6v5
			h-1v-0.5c-0.6,0.4-1.3,0.6-2.1,0.6C51.3,28.8,50.8,28.7,50.3,28.4z M53.4,27.3c0.4-0.3,0.6-0.7,0.6-1.1s-0.2-0.8-0.6-1.1
			c-0.4-0.3-0.9-0.4-1.5-0.4s-1.1,0.1-1.5,0.4s-0.6,0.7-0.6,1.1s0.2,0.8,0.6,1.1c0.4,0.3,0.9,0.4,1.5,0.4
			C52.5,27.7,53,27.6,53.4,27.3z"/>
		<path class="st0" d="M56.7,20.8h1.1v0.7c0.3-0.3,0.6-0.5,1-0.6s0.7-0.2,1.1-0.2c0.6,0,1.1,0.2,1.6,0.5s0.9,0.7,1.1,1.3
			c0.3,0.5,0.4,1.1,0.4,1.7v4.5h-1v-4.5c0-0.4-0.1-0.8-0.3-1.2c-0.2-0.4-0.4-0.7-0.8-0.9c-0.3-0.2-0.7-0.3-1.1-0.3
			c-0.4,0-0.7,0.1-1.1,0.3c-0.3,0.2-0.6,0.5-0.8,0.9s-0.3,0.8-0.3,1.2v4.5h-1.1v-7.9H56.7z"/>
		<path class="st0" d="M64.9,18.1h1v10.5h-1V18.1z"/>
		<path class="st0" d="M69,28.4c-0.5-0.2-0.9-0.5-1.1-0.9c-0.3-0.4-0.4-0.8-0.4-1.3s0.1-0.9,0.4-1.3s0.7-0.7,1.1-0.9
			c0.5-0.2,1-0.3,1.6-0.3c0.8,0,1.5,0.2,2.1,0.6v-0.6c0-0.6-0.2-1.1-0.6-1.4c-0.4-0.4-0.9-0.6-1.6-0.6c-0.4,0-0.7,0.1-1.1,0.2
			c-0.3,0.2-0.6,0.4-0.8,0.7L67.8,22c0.3-0.4,0.7-0.8,1.2-1s1-0.4,1.6-0.4s1.2,0.1,1.6,0.4c0.5,0.3,0.9,0.6,1.2,1.1
			c0.3,0.5,0.4,1,0.4,1.6v5h-1v-0.5c-0.6,0.4-1.3,0.6-2.1,0.6C70,28.8,69.5,28.7,69,28.4z M72.1,27.3c0.4-0.3,0.6-0.7,0.6-1.1
			s-0.2-0.8-0.6-1.1c-0.4-0.3-0.9-0.4-1.5-0.4s-1.1,0.1-1.5,0.4s-0.6,0.7-0.6,1.1s0.2,0.8,0.6,1.1c0.4,0.3,0.9,0.4,1.5,0.4
			C71.2,27.7,71.7,27.6,72.1,27.3z"/>
		<path class="st0" d="M75.5,18.1h1v3.4c0.3-0.3,0.6-0.5,1-0.6s0.7-0.2,1.1-0.2c0.6,0,1.1,0.2,1.6,0.5s0.9,0.7,1.1,1.3
			c0.3,0.5,0.4,1.1,0.4,1.7v4.5h-1v-4.5c0-0.4-0.1-0.8-0.3-1.2c-0.2-0.4-0.4-0.7-0.8-0.9c-0.3-0.2-0.7-0.3-1.1-0.3s-0.7,0.1-1.1,0.3
			c-0.3,0.2-0.6,0.5-0.8,0.9c-0.2,0.4-0.3,0.8-0.3,1.2v4.5h-1V18.1H75.5z"/>
		<path class="st0" d="M87.4,18.1h1v6.3l3.9-3.7h1.5l-3.7,3.5l3.7,4.4h-1.4l-3.1-3.7l-1,0.9v2.8h-1L87.4,18.1L87.4,18.1z"/>
		<path class="st0" d="M95.8,28.4c-0.5-0.2-0.9-0.5-1.1-0.9c-0.3-0.4-0.4-0.8-0.4-1.3s0.1-0.9,0.4-1.3s0.7-0.7,1.1-0.9
			c0.5-0.2,1-0.3,1.6-0.3c0.8,0,1.5,0.2,2.1,0.6v-0.6c0-0.6-0.2-1.1-0.6-1.4c-0.4-0.4-0.9-0.6-1.6-0.6c-0.4,0-0.7,0.1-1.1,0.2
			c-0.3,0.2-0.6,0.4-0.8,0.7L94.6,22c0.3-0.4,0.7-0.8,1.2-1s1-0.4,1.6-0.4s1.2,0.1,1.7,0.4s0.9,0.6,1.2,1.1c0.3,0.5,0.4,1,0.4,1.6v5
			h-1v-0.5c-0.6,0.4-1.3,0.6-2.1,0.6C96.8,28.8,96.3,28.7,95.8,28.4z M98.9,27.3c0.4-0.3,0.6-0.7,0.6-1.1s-0.2-0.8-0.6-1.1
			c-0.4-0.3-0.9-0.4-1.5-0.4s-1.1,0.1-1.5,0.4s-0.6,0.7-0.6,1.1s0.2,0.8,0.6,1.1c0.4,0.3,0.9,0.4,1.5,0.4
			C98,27.7,98.5,27.6,98.9,27.3z"/>
		<path class="st0" d="M102.2,20.8h1.1v0.6c0.3-0.2,0.5-0.4,0.8-0.5s0.6-0.2,1-0.2c0.5,0,0.9,0.1,1.3,0.4c0.4,0.2,0.8,0.6,1,1
			c0.3-0.4,0.6-0.7,1-1c0.4-0.2,0.9-0.4,1.3-0.4c0.5,0,1,0.1,1.5,0.4c0.4,0.3,0.8,0.7,1,1.1c0.3,0.5,0.4,1,0.4,1.6v4.8h-1v-4.8
			c0-0.4-0.1-0.7-0.2-1.1c-0.2-0.3-0.4-0.6-0.7-0.8c-0.3-0.2-0.6-0.3-0.9-0.3s-0.6,0.1-0.9,0.3c-0.3,0.2-0.5,0.4-0.7,0.8
			c-0.2,0.3-0.2,0.7-0.2,1.1v4.8h-1v-4.8c0-0.4-0.1-0.7-0.2-1.1c-0.2-0.3-0.4-0.6-0.7-0.8c-0.3-0.2-0.6-0.3-0.9-0.3
			s-0.7,0.1-0.9,0.3c-0.3,0.2-0.5,0.4-0.7,0.8c-0.2,0.3-0.2,0.7-0.2,1.1v4.8h-1.1v-7.8H102.2z"/>
		<path class="st0" d="M115.9,18.7c0,0.2-0.1,0.4-0.2,0.5s-0.3,0.2-0.5,0.2s-0.4-0.1-0.5-0.2s-0.2-0.3-0.2-0.5s0.1-0.4,0.2-0.5
			s0.3-0.2,0.5-0.2s0.4,0.1,0.5,0.2C115.8,18.4,115.9,18.5,115.9,18.7z M115.7,28.6h-1v-7.9h1V28.6z"/>
		<path class="st0" d="M121.5,20.8h1.1v0.6c0.3-0.2,0.5-0.4,0.8-0.5s0.6-0.2,1-0.2c0.5,0,0.9,0.1,1.3,0.4c0.4,0.2,0.8,0.6,1,1
			c0.3-0.4,0.6-0.7,1-1c0.4-0.2,0.9-0.4,1.3-0.4c0.5,0,1,0.1,1.5,0.4c0.4,0.3,0.8,0.7,1,1.1c0.3,0.5,0.4,1,0.4,1.6v4.8h-1v-4.8
			c0-0.4-0.1-0.7-0.2-1.1c-0.2-0.3-0.4-0.6-0.7-0.8c-0.3-0.2-0.6-0.3-0.9-0.3c-0.3,0-0.6,0.1-0.9,0.3c-0.3,0.2-0.5,0.4-0.7,0.8
			c-0.2,0.3-0.2,0.7-0.2,1.1v4.8h-1v-4.8c0-0.4-0.1-0.7-0.2-1.1c-0.2-0.3-0.4-0.6-0.7-0.8c-0.3-0.2-0.6-0.3-0.9-0.3
			s-0.7,0.1-0.9,0.3c-0.3,0.2-0.5,0.4-0.7,0.8c-0.2,0.3-0.2,0.7-0.2,1.1v4.8h-1.1v-7.8H121.5z"/>
		<path class="st0" d="M135.2,28.2c-0.6-0.4-1-0.8-1.3-1.5c-0.3-0.6-0.5-1.3-0.5-2.1c0-0.8,0.2-1.5,0.5-2.1s0.7-1.1,1.3-1.5
			c0.5-0.4,1.2-0.5,1.8-0.5c0.7,0,1.3,0.2,1.8,0.5c0.5,0.4,1,0.8,1.3,1.5c0.3,0.6,0.5,1.3,0.5,2.1v0.5h-6c0.1,0.7,0.4,1.3,0.9,1.8
			s1.1,0.7,1.7,0.7c0.4,0,0.7-0.1,1.1-0.2c0.3-0.2,0.6-0.4,0.9-0.7l0.8,0.7c-0.3,0.4-0.7,0.7-1.2,1c-0.5,0.2-1,0.3-1.5,0.3
			C136.4,28.8,135.8,28.6,135.2,28.2z M139.4,24.2c-0.1-0.7-0.4-1.3-0.8-1.8c-0.5-0.5-1-0.7-1.7-0.7s-1.2,0.2-1.7,0.7
			s-0.7,1.1-0.8,1.8H139.4z"/>
		<path class="st0" d="M141.9,20.8h1.1v0.7c0.3-0.3,0.6-0.5,1-0.6s0.7-0.2,1.1-0.2c0.6,0,1.1,0.2,1.6,0.5s0.9,0.7,1.1,1.3
			c0.3,0.5,0.4,1.1,0.4,1.7v4.5h-1.1v-4.5c0-0.4-0.1-0.8-0.3-1.2c-0.2-0.4-0.4-0.7-0.8-0.9c-0.3-0.2-0.7-0.3-1.1-0.3
			c-0.4,0-0.7,0.1-1.1,0.3c-0.3,0.2-0.6,0.5-0.8,0.9s-0.3,0.8-0.3,1.2v4.5h-1.1v-7.9H141.9z"/>
		<path class="st0" d="M151.5,31.6c-0.6-0.3-1-0.7-1.3-1.2l0.9-0.6c0.2,0.3,0.5,0.6,0.9,0.8c0.4,0.2,0.8,0.3,1.3,0.3
			s0.9-0.1,1.3-0.3c0.4-0.2,0.7-0.5,0.9-0.8c0.2-0.4,0.3-0.8,0.3-1.2v-1.1c-0.3,0.4-0.7,0.7-1.2,0.9c-0.5,0.2-0.9,0.3-1.5,0.3
			c-0.7,0-1.3-0.2-1.9-0.5c-0.6-0.4-1-0.8-1.3-1.5c-0.3-0.6-0.5-1.3-0.5-2.1s0.2-1.4,0.5-2.1c0.3-0.6,0.8-1.1,1.3-1.5
			c0.6-0.4,1.2-0.5,1.9-0.5c0.5,0,1,0.1,1.5,0.3c0.5,0.2,0.9,0.5,1.2,0.9v-1.1h1v7.9c0,0.6-0.2,1.2-0.5,1.7s-0.8,0.9-1.3,1.2
			c-0.6,0.3-1.2,0.5-1.9,0.5C152.7,32.1,152.1,31.9,151.5,31.6z M154.6,27.3c0.4-0.3,0.7-0.6,1-1.1c0.2-0.5,0.4-1,0.4-1.5
			c0-0.6-0.1-1.1-0.4-1.5c-0.2-0.5-0.6-0.8-1-1.1c-0.4-0.3-0.9-0.4-1.3-0.4c-0.5,0-0.9,0.1-1.3,0.4c-0.4,0.3-0.7,0.6-1,1.1
			c-0.2,0.5-0.4,1-0.4,1.5c0,0.6,0.1,1.1,0.4,1.5c0.2,0.5,0.6,0.8,1,1.1c0.4,0.3,0.8,0.4,1.3,0.4C153.8,27.7,154.2,27.6,154.6,27.3z
			"/>
		<path class="st0" d="M160.3,28.3c-0.5-0.3-0.9-0.7-1.1-1.3c-0.3-0.5-0.4-1.1-0.4-1.8v-4.5h1v4.5c0,0.4,0.1,0.8,0.3,1.2
			c0.2,0.4,0.4,0.7,0.8,0.9c0.3,0.2,0.7,0.3,1.1,0.3c0.4,0,0.7-0.1,1.1-0.3c0.3-0.2,0.6-0.5,0.8-0.9s0.3-0.8,0.3-1.2v-4.5h1v7.9h-1
			v-0.7c-0.3,0.3-0.6,0.5-1,0.6s-0.7,0.2-1.1,0.2C161.3,28.8,160.7,28.6,160.3,28.3z"/>
		<path class="st0" d="M168.1,28.2c-0.6-0.4-1-0.8-1.3-1.5c-0.3-0.6-0.5-1.3-0.5-2.1s0.2-1.4,0.5-2.1c0.3-0.6,0.8-1.1,1.3-1.5
			c0.6-0.4,1.2-0.5,1.9-0.5c0.5,0,1,0.1,1.5,0.3c0.5,0.2,0.9,0.5,1.2,1l-0.8,0.7c-0.3-0.3-0.5-0.5-0.9-0.7c-0.3-0.2-0.7-0.2-1.1-0.2
			c-0.5,0-0.9,0.1-1.3,0.4c-0.4,0.3-0.7,0.6-1,1.1c-0.2,0.5-0.4,1-0.4,1.5c0,0.6,0.1,1.1,0.4,1.5c0.2,0.5,0.6,0.8,1,1.1
			c0.4,0.3,0.8,0.4,1.3,0.4c0.4,0,0.7-0.1,1.1-0.2c0.3-0.2,0.6-0.4,0.9-0.7l0.8,0.7c-0.3,0.4-0.7,0.7-1.2,1c-0.5,0.2-1,0.3-1.5,0.3
			C169.2,28.8,168.6,28.6,168.1,28.2z"/>
		<path class="st0" d="M175.3,28.4c-0.5-0.2-0.9-0.5-1.1-0.9c-0.3-0.4-0.4-0.8-0.4-1.3s0.1-0.9,0.4-1.3c0.3-0.4,0.7-0.7,1.1-0.9
			c0.5-0.2,1-0.3,1.6-0.3c0.8,0,1.5,0.2,2.1,0.6v-0.6c0-0.6-0.2-1.1-0.6-1.4c-0.4-0.4-0.9-0.6-1.6-0.6c-0.4,0-0.7,0.1-1.1,0.2
			c-0.3,0.2-0.6,0.4-0.8,0.7L174,22c0.3-0.4,0.7-0.8,1.2-1s1-0.4,1.6-0.4s1.2,0.1,1.7,0.4s0.9,0.6,1.2,1.1s0.4,1,0.4,1.6v5h-1v-0.5
			c-0.6,0.4-1.3,0.6-2.1,0.6C176.3,28.8,175.7,28.7,175.3,28.4z M178.4,27.3c0.4-0.3,0.6-0.7,0.6-1.1s-0.2-0.8-0.6-1.1
			c-0.4-0.3-0.9-0.4-1.5-0.4s-1.1,0.1-1.5,0.4s-0.6,0.7-0.6,1.1s0.2,0.8,0.6,1.1c0.4,0.3,0.9,0.4,1.5,0.4
			C177.4,27.7,177.9,27.6,178.4,27.3z"/>
		<path class="st0" d="M181.7,20.8h1.1v1.1c0.3-0.4,0.7-0.7,1.2-0.9c0.5-0.2,0.9-0.3,1.4-0.3c0.7,0,1.3,0.2,1.9,0.5
			c0.6,0.4,1,0.8,1.3,1.5c0.3,0.6,0.5,1.3,0.5,2.1s-0.2,1.4-0.5,2.1c-0.3,0.6-0.8,1.1-1.3,1.5c-0.6,0.4-1.2,0.5-1.9,0.5
			c-0.5,0-1-0.1-1.4-0.3c-0.5-0.2-0.9-0.5-1.2-0.9v3.7h-1.1V20.8z M186.8,27.3c0.4-0.3,0.7-0.6,1-1.1c0.2-0.5,0.4-1,0.4-1.5
			s-0.1-1.1-0.4-1.5c-0.2-0.5-0.6-0.8-1-1.1c-0.4-0.3-0.9-0.4-1.3-0.4c-0.5,0-0.9,0.1-1.3,0.4c-0.4,0.3-0.7,0.6-1,1.1
			c-0.2,0.5-0.4,1-0.4,1.5c0,0.6,0.1,1.1,0.4,1.5c0.2,0.5,0.6,0.8,1,1.1c0.4,0.3,0.8,0.4,1.3,0.4C185.9,27.7,186.3,27.6,186.8,27.3z
			"/>
		<path class="st0" d="M37.9,36.1H39l4.2,9.2l4.2-9.2h1.1v10.5h-1.1v-8.1l-3.6,8.1h-1.1l-3.6-8.1v8.1h-1V36.1H37.9z"/>
		<path class="st0" d="M51.7,36.7c0,0.2-0.1,0.4-0.2,0.5c-0.1,0.1-0.3,0.2-0.5,0.2s-0.4-0.1-0.5-0.2c-0.1-0.1-0.2-0.3-0.2-0.5
			s0.1-0.4,0.2-0.5c0.1-0.1,0.3-0.2,0.5-0.2s0.4,0.1,0.5,0.2C51.6,36.4,51.7,36.5,51.7,36.7z M51.5,46.6h-1v-7.9h1V46.6z"/>
		<path class="st0" d="M53.4,38.8h1.1v0.7c0.3-0.3,0.6-0.5,1-0.6s0.7-0.2,1.1-0.2c0.6,0,1.1,0.2,1.6,0.5s0.9,0.7,1.1,1.3
			c0.3,0.5,0.4,1.1,0.4,1.7v4.5h-1.1v-4.5c0-0.4-0.1-0.8-0.3-1.2s-0.4-0.7-0.8-0.9c-0.3-0.2-0.7-0.3-1.1-0.3c-0.4,0-0.7,0.1-1.1,0.3
			c-0.3,0.2-0.6,0.5-0.8,0.9s-0.3,0.8-0.3,1.2v4.5h-1.1v-7.9H53.4z"/>
		<path class="st0" d="M62.7,46.4c-0.5-0.2-0.9-0.5-1.1-0.9c-0.3-0.4-0.4-0.8-0.4-1.3s0.1-0.9,0.4-1.3c0.3-0.4,0.7-0.7,1.1-0.9
			c0.5-0.2,1-0.3,1.6-0.3c0.8,0,1.5,0.2,2.1,0.6v-0.6c0-0.6-0.2-1.1-0.6-1.4c-0.4-0.4-0.9-0.6-1.6-0.6c-0.4,0-0.7,0.1-1.1,0.2
			c-0.3,0.2-0.6,0.4-0.8,0.7L61.5,40c0.3-0.4,0.7-0.8,1.2-1s1-0.4,1.6-0.4c0.6,0,1.2,0.1,1.6,0.4c0.5,0.3,0.9,0.6,1.2,1.1
			c0.3,0.5,0.4,1,0.4,1.6v5h-1v-0.5c-0.6,0.4-1.3,0.6-2.1,0.6C63.7,46.8,63.1,46.7,62.7,46.4z M65.8,45.3c0.4-0.3,0.6-0.7,0.6-1.1
			c0-0.4-0.2-0.8-0.6-1.1s-0.9-0.4-1.5-0.4s-1.1,0.1-1.5,0.4c-0.4,0.3-0.6,0.7-0.6,1.1c0,0.4,0.2,0.8,0.6,1.1
			c0.4,0.3,0.9,0.4,1.5,0.4C64.8,45.7,65.3,45.6,65.8,45.3z"/>
		<path class="st0" d="M69.3,36.1h1.1v10.5h-1.1V36.1z"/>
		<path class="st0" d="M79.7,36.1h1.1L85,46.6h-1.1l-1.4-3.5H78l-1.4,3.5h-1.1L79.7,36.1z M82.1,42.1l-1.8-4.6l-1.8,4.6H82.1z"/>
		<path class="st0" d="M87.5,36.7c0,0.2-0.1,0.4-0.2,0.5s-0.3,0.2-0.5,0.2s-0.4-0.1-0.5-0.2c-0.1-0.1-0.2-0.3-0.2-0.5
			s0.1-0.4,0.2-0.5s0.3-0.2,0.5-0.2s0.4,0.1,0.5,0.2C87.5,36.4,87.5,36.5,87.5,36.7z M87.3,46.6h-1v-7.9h1V46.6z"/>
		<path class="st0" d="M90.9,46.2c-0.6-0.4-1-0.8-1.3-1.5c-0.3-0.6-0.5-1.3-0.5-2.1s0.2-1.4,0.5-2.1c0.3-0.6,0.8-1.1,1.3-1.5
			c0.6-0.4,1.2-0.5,1.9-0.5c0.5,0,1,0.1,1.4,0.3c0.5,0.2,0.9,0.5,1.2,0.9V36h1v10.5h-1v-1.1c-0.3,0.4-0.7,0.7-1.2,0.9
			s-0.9,0.3-1.5,0.3C92.1,46.8,91.5,46.6,90.9,46.2z M94.1,45.3c0.4-0.3,0.7-0.6,1-1.1c0.2-0.5,0.4-1,0.4-1.5c0-0.6-0.1-1.1-0.4-1.5
			c-0.2-0.5-0.6-0.8-1-1.1s-0.9-0.4-1.3-0.4c-0.5,0-0.9,0.1-1.3,0.4c-0.4,0.3-0.7,0.6-1,1.1c-0.2,0.5-0.4,1-0.4,1.5
			c0,0.6,0.1,1.1,0.4,1.5c0.2,0.5,0.6,0.8,1,1.1s0.8,0.4,1.3,0.4C93.3,45.7,93.7,45.6,94.1,45.3z"/>
		<path class="st0" d="M99.7,36.7c0,0.2-0.1,0.4-0.2,0.5s-0.3,0.2-0.5,0.2s-0.4-0.1-0.5-0.2c-0.1-0.1-0.2-0.3-0.2-0.5
			s0.1-0.4,0.2-0.5S98.8,36,99,36s0.4,0.1,0.5,0.2C99.6,36.4,99.7,36.5,99.7,36.7z M99.4,46.6h-1v-7.9h1V46.6z"/>
		<path class="st0" d="M101.4,38.8h1.1v0.7c0.3-0.3,0.6-0.5,1-0.6s0.7-0.2,1.1-0.2c0.6,0,1.1,0.2,1.6,0.5s0.9,0.7,1.1,1.3
			c0.3,0.5,0.4,1.1,0.4,1.7v4.5h-1.1v-4.5c0-0.4-0.1-0.8-0.3-1.2c-0.2-0.4-0.4-0.7-0.8-0.9c-0.3-0.2-0.7-0.3-1.1-0.3
			s-0.7,0.1-1.1,0.3c-0.3,0.2-0.6,0.5-0.8,0.9c-0.2,0.4-0.3,0.8-0.3,1.2v4.5h-1.1v-7.9H101.4z"/>
		<path class="st0" d="M114.9,46.6l-2.4-7.9h1.1l1.8,6l1.8-6h1.1l1.8,6l1.8-6h1.1l-2.4,7.9h-1.1l-1.8-6.1l-1.8,6.1H114.9z"/>
		<path class="st0" d="M125.4,46.4c-0.5-0.2-0.9-0.5-1.1-0.9c-0.3-0.4-0.4-0.8-0.4-1.3s0.1-0.9,0.4-1.3c0.3-0.4,0.7-0.7,1.1-0.9
			c0.5-0.2,1-0.3,1.6-0.3c0.8,0,1.5,0.2,2.1,0.6v-0.6c0-0.6-0.2-1.1-0.6-1.4c-0.4-0.4-0.9-0.6-1.6-0.6c-0.4,0-0.7,0.1-1.1,0.2
			c-0.3,0.2-0.6,0.4-0.8,0.7l-0.9-0.6c0.3-0.4,0.7-0.8,1.2-1s1-0.4,1.6-0.4s1.2,0.1,1.6,0.4c0.5,0.3,0.9,0.6,1.2,1.1s0.4,1,0.4,1.6
			v5h-1v-0.5c-0.6,0.4-1.3,0.6-2.1,0.6C126.4,46.8,125.8,46.7,125.4,46.4z M128.4,45.3c0.4-0.3,0.6-0.7,0.6-1.1
			c0-0.4-0.2-0.8-0.6-1.1c-0.4-0.3-0.9-0.4-1.5-0.4s-1.1,0.1-1.5,0.4c-0.4,0.3-0.6,0.7-0.6,1.1c0,0.4,0.2,0.8,0.6,1.1
			s0.9,0.4,1.5,0.4C127.5,45.7,128,45.6,128.4,45.3z"/>
		<path class="st0" d="M132,36.1h1v10.5h-1V36.1z"/>
		<path class="st0" d="M138.8,36.1h6.2v1h-5.2v3.7h5.2v1.1h-5.2v4.7h-1V36.1z"/>
		<path class="st0" d="M148.1,46.4c-0.5-0.2-0.9-0.5-1.1-0.9c-0.3-0.4-0.4-0.8-0.4-1.3s0.1-0.9,0.4-1.3c0.3-0.4,0.7-0.7,1.1-0.9
			c0.5-0.2,1-0.3,1.6-0.3c0.8,0,1.5,0.2,2.1,0.6v-0.6c0-0.6-0.2-1.1-0.6-1.4c-0.4-0.4-0.9-0.6-1.6-0.6c-0.4,0-0.7,0.1-1.1,0.2
			c-0.3,0.2-0.6,0.4-0.8,0.7l-0.9-0.6c0.3-0.4,0.7-0.8,1.2-1s1-0.4,1.6-0.4s1.2,0.1,1.7,0.4c0.5,0.3,0.9,0.6,1.2,1.1s0.4,1,0.4,1.6
			v5h-1v-0.5c-0.6,0.4-1.3,0.6-2.1,0.6C149.1,46.8,148.6,46.7,148.1,46.4z M151.2,45.3c0.4-0.3,0.6-0.7,0.6-1.1
			c0-0.4-0.2-0.8-0.6-1.1c-0.4-0.3-0.9-0.4-1.5-0.4s-1.1,0.1-1.5,0.4c-0.4,0.3-0.6,0.7-0.6,1.1c0,0.4,0.2,0.8,0.6,1.1
			c0.4,0.3,0.9,0.4,1.5,0.4S150.8,45.6,151.2,45.3z"/>
		<path class="st0" d="M156,36.7c0,0.2-0.1,0.4-0.2,0.5c-0.1,0.1-0.3,0.2-0.5,0.2s-0.4-0.1-0.5-0.2c-0.1-0.1-0.2-0.3-0.2-0.5
			s0.1-0.4,0.2-0.5c0.1-0.1,0.3-0.2,0.5-0.2s0.4,0.1,0.5,0.2C155.9,36.4,156,36.5,156,36.7z M155.8,46.6h-1v-7.9h1V46.6z"/>
		<path class="st0" d="M157.7,45.3l4.9-5.5h-4.9v-1h6.1v1.3l-4.9,5.5h4.9v1h-6.1V45.3z"/>
		<path class="st0" d="M167,36.7c0,0.2-0.1,0.4-0.2,0.5c-0.1,0.1-0.3,0.2-0.5,0.2s-0.4-0.1-0.5-0.2c-0.1-0.1-0.2-0.3-0.2-0.5
			s0.1-0.4,0.2-0.5c0.1-0.1,0.3-0.2,0.5-0.2s0.4,0.1,0.5,0.2C166.9,36.4,167,36.5,167,36.7z M166.7,46.6h-1v-7.9h1V46.6z"/>
		<path class="st0" d="M168.7,38.8h1v0.7c0.3-0.3,0.6-0.5,1-0.6s0.7-0.2,1.1-0.2c0.6,0,1.1,0.2,1.6,0.5s0.9,0.7,1.1,1.3
			c0.3,0.5,0.4,1.1,0.4,1.7v4.5h-1v-4.5c0-0.4-0.1-0.8-0.3-1.2s-0.4-0.7-0.8-0.9c-0.3-0.2-0.7-0.3-1.1-0.3c-0.4,0-0.7,0.1-1.1,0.3
			c-0.3,0.2-0.6,0.5-0.8,0.9s-0.3,0.8-0.3,1.2v4.5h-1v-7.9H168.7z"/>
		<path class="st0" d="M15,54.1h1.1l4.2,9.2l4.2-9.2h1.1v10.5h-1.1v-8.1l-3.6,8.1h-1.1l-3.8-8v8.1h-1V54.1z"/>
		<path class="st0" d="M28.8,64.2c-0.6-0.4-1-0.8-1.3-1.5c-0.3-0.6-0.5-1.3-0.5-2.1s0.2-1.4,0.5-2.1c0.3-0.6,0.8-1.1,1.3-1.5
			c0.6-0.4,1.2-0.5,1.9-0.5c0.7,0,1.3,0.2,1.9,0.5c0.6,0.4,1,0.9,1.3,1.5s0.5,1.3,0.5,2.1s-0.2,1.4-0.5,2.1
			c-0.3,0.6-0.8,1.1-1.3,1.5c-0.6,0.4-1.2,0.5-1.9,0.5C30,64.8,29.4,64.6,28.8,64.2z M32,63.3c0.4-0.3,0.7-0.6,1-1.1
			c0.2-0.5,0.4-1,0.4-1.5c0-0.6-0.1-1.1-0.4-1.5c-0.2-0.5-0.6-0.8-1-1.1c-0.4-0.3-0.9-0.4-1.3-0.4c-0.5,0-0.9,0.1-1.3,0.4
			c-0.4,0.3-0.7,0.6-1,1.1c-0.2,0.5-0.4,1-0.4,1.5c0,0.6,0.1,1.1,0.4,1.5c0.2,0.5,0.6,0.8,1,1.1s0.8,0.4,1.3,0.4S31.6,63.6,32,63.3z
			"/>
		<path class="st0" d="M35.8,54.1h1.1v3.4c0.3-0.3,0.6-0.5,1-0.6s0.7-0.2,1.1-0.2c0.6,0,1.1,0.2,1.6,0.5s0.9,0.7,1.1,1.3
			c0.3,0.5,0.4,1.1,0.4,1.7v4.5H41v-4.5c0-0.4-0.1-0.8-0.3-1.2s-0.4-0.7-0.8-0.9c-0.3-0.2-0.7-0.3-1.1-0.3c-0.4,0-0.7,0.1-1.1,0.3
			c-0.3,0.2-0.6,0.5-0.8,0.9s-0.3,0.8-0.3,1.2v4.5h-1.1V54.1H35.8z"/>
		<path class="st0" d="M45.3,64.2c-0.6-0.4-1-0.8-1.3-1.5c-0.3-0.6-0.5-1.3-0.5-2.1s0.2-1.4,0.5-2.1c0.3-0.6,0.8-1.1,1.3-1.5
			c0.6-0.4,1.2-0.5,1.9-0.5s1.3,0.2,1.9,0.5c0.6,0.4,1,0.9,1.3,1.5s0.5,1.3,0.5,2.1s-0.2,1.4-0.5,2.1c-0.3,0.6-0.8,1.1-1.3,1.5
			c-0.6,0.4-1.2,0.5-1.9,0.5C46.5,64.8,45.9,64.6,45.3,64.2z M48.5,63.3c0.4-0.3,0.7-0.6,1-1.1c0.2-0.5,0.4-1,0.4-1.5
			c0-0.6-0.1-1.1-0.4-1.5c-0.2-0.5-0.6-0.8-1-1.1s-0.9-0.4-1.3-0.4c-0.5,0-0.9,0.1-1.3,0.4c-0.4,0.3-0.7,0.6-1,1.1
			c-0.2,0.5-0.4,1-0.4,1.5c0,0.6,0.1,1.1,0.4,1.5c0.2,0.5,0.6,0.8,1,1.1s0.8,0.4,1.3,0.4C47.6,63.7,48.1,63.6,48.5,63.3z"/>
		<path class="st0" d="M52.2,56.8h1.1v0.7c0.3-0.3,0.6-0.5,1-0.6s0.7-0.2,1.1-0.2c0.6,0,1.1,0.2,1.6,0.5s0.9,0.7,1.1,1.3
			c0.3,0.5,0.4,1.1,0.4,1.7v4.5h-1.1v-4.5c0-0.4-0.1-0.8-0.3-1.2s-0.4-0.7-0.8-0.9c-0.3-0.2-0.7-0.3-1.1-0.3c-0.4,0-0.7,0.1-1.1,0.3
			c-0.3,0.2-0.6,0.5-0.8,0.9S53,59.8,53,60.2v4.5h-1.1v-7.9H52.2z"/>
		<path class="st0" d="M64,56.8h1.1v0.6c0.3-0.2,0.5-0.4,0.8-0.5s0.6-0.2,1-0.2c0.5,0,0.9,0.1,1.3,0.4c0.4,0.2,0.8,0.6,1,1
			c0.3-0.4,0.6-0.7,1-1c0.4-0.2,0.9-0.4,1.4-0.4s1,0.1,1.5,0.4c0.4,0.3,0.8,0.7,1,1.1c0.3,0.5,0.4,1,0.4,1.6v4.8h-1v-4.8
			c0-0.4-0.1-0.7-0.2-1.1c-0.2-0.3-0.4-0.6-0.7-0.8c-0.3-0.2-0.6-0.3-0.9-0.3s-0.7,0.1-0.9,0.3c-0.3,0.2-0.5,0.4-0.7,0.8
			c-0.2,0.3-0.2,0.7-0.2,1.1v4.8h-1.1v-4.8c0-0.4-0.1-0.7-0.2-1.1c-0.2-0.3-0.4-0.6-0.7-0.8c-0.3-0.2-0.6-0.3-0.9-0.3
			s-0.6,0.1-0.9,0.3s-0.5,0.4-0.7,0.8c-0.2,0.3-0.2,0.7-0.2,1.1v4.8H64V56.8z"/>
		<path class="st0" d="M77.4,64.4c-0.5-0.2-0.9-0.5-1.1-0.9c-0.3-0.4-0.4-0.8-0.4-1.3s0.1-0.9,0.4-1.3c0.3-0.4,0.7-0.7,1.1-0.9
			c0.5-0.2,1-0.3,1.6-0.3c0.8,0,1.5,0.2,2.1,0.6v-0.6c0-0.6-0.2-1.1-0.6-1.4c-0.4-0.4-0.9-0.6-1.6-0.6c-0.4,0-0.7,0.1-1.1,0.2
			c-0.3,0.2-0.6,0.4-0.8,0.7L76.2,58c0.3-0.4,0.7-0.8,1.2-1s1-0.4,1.6-0.4s1.2,0.1,1.7,0.4c0.5,0.3,0.9,0.6,1.2,1.1
			c0.3,0.5,0.4,1,0.4,1.6v5h-1v-0.5c-0.6,0.4-1.3,0.6-2.1,0.6C78.5,64.8,77.9,64.7,77.4,64.4z M80.5,63.3c0.4-0.3,0.6-0.7,0.6-1.1
			c0-0.4-0.2-0.8-0.6-1.1s-0.9-0.4-1.5-0.4s-1.1,0.1-1.5,0.4c-0.4,0.3-0.6,0.7-0.6,1.1c0,0.4,0.2,0.8,0.6,1.1s0.9,0.4,1.5,0.4
			S80.1,63.6,80.5,63.3z"/>
		<path class="st0" d="M85.1,64.4c-0.5-0.2-0.9-0.5-1.1-0.9c-0.3-0.4-0.4-0.8-0.4-1.3s0.1-0.9,0.4-1.3c0.3-0.4,0.7-0.7,1.1-0.9
			c0.5-0.2,1-0.3,1.6-0.3c0.8,0,1.5,0.2,2.1,0.6v-0.6c0-0.6-0.2-1.1-0.6-1.4c-0.4-0.4-0.9-0.6-1.6-0.6c-0.4,0-0.7,0.1-1.1,0.2
			c-0.3,0.2-0.6,0.4-0.8,0.7L83.9,58c0.3-0.4,0.7-0.8,1.2-1s1-0.4,1.6-0.4s1.2,0.1,1.7,0.4c0.5,0.3,0.9,0.6,1.2,1.1
			c0.3,0.5,0.4,1,0.4,1.6v5h-1v-0.5c-0.6,0.4-1.3,0.6-2.1,0.6C86.1,64.8,85.6,64.7,85.1,64.4z M88.2,63.3c0.4-0.3,0.6-0.7,0.6-1.1
			c0-0.4-0.2-0.8-0.6-1.1s-0.9-0.4-1.5-0.4s-1.1,0.1-1.5,0.4c-0.4,0.3-0.6,0.7-0.6,1.1c0,0.4,0.2,0.8,0.6,1.1s0.9,0.4,1.5,0.4
			C87.3,63.7,87.8,63.6,88.2,63.3z"/>
		<path class="st0" d="M94.1,55.4c-0.3,0.3-0.4,0.8-0.4,1.3v0.1H96v1.1h-2.3v6.8h-1v-6.8H91v-1.1h1.6v-0.1c0-0.5,0.1-1,0.3-1.4
			c0.2-0.4,0.5-0.8,0.9-1c0.4-0.3,0.8-0.4,1.3-0.4s1,0.2,1.4,0.5L96,55.2c-0.2-0.2-0.5-0.3-0.8-0.3C94.7,54.9,94.4,55.1,94.1,55.4z"
			/>
		<path class="st0" d="M101.7,54.1h1v10.5h-1V54.1z"/>
		<path class="st0" d="M105.8,64.4c-0.5-0.2-0.9-0.5-1.1-0.9c-0.3-0.4-0.4-0.8-0.4-1.3s0.1-0.9,0.4-1.3c0.3-0.4,0.7-0.7,1.1-0.9
			c0.5-0.2,1-0.3,1.6-0.3c0.8,0,1.5,0.2,2.1,0.6v-0.6c0-0.6-0.2-1.1-0.6-1.4c-0.4-0.4-0.9-0.6-1.6-0.6c-0.4,0-0.7,0.1-1.1,0.2
			c-0.3,0.2-0.6,0.4-0.8,0.7l-0.9-0.6c0.3-0.4,0.7-0.8,1.2-1s1-0.4,1.6-0.4s1.2,0.1,1.6,0.4c0.5,0.3,0.9,0.6,1.2,1.1
			c0.3,0.5,0.4,1,0.4,1.6v5h-1v-0.5c-0.6,0.4-1.3,0.6-2.1,0.6C106.8,64.8,106.3,64.7,105.8,64.4z M108.9,63.3
			c0.4-0.3,0.6-0.7,0.6-1.1c0-0.4-0.2-0.8-0.6-1.1s-0.9-0.4-1.5-0.4s-1.1,0.1-1.5,0.4c-0.4,0.3-0.6,0.7-0.6,1.1
			c0,0.4,0.2,0.8,0.6,1.1s0.9,0.4,1.5,0.4S108.5,63.6,108.9,63.3z"/>
		<path class="st0" d="M112.3,54.1h1v3.4c0.3-0.3,0.6-0.5,1-0.6s0.7-0.2,1.1-0.2c0.6,0,1.1,0.2,1.6,0.5s0.9,0.7,1.1,1.3
			c0.3,0.5,0.4,1.1,0.4,1.7v4.5h-1v-4.5c0-0.4-0.1-0.8-0.3-1.2c-0.2-0.4-0.4-0.7-0.8-0.9c-0.3-0.2-0.7-0.3-1.1-0.3s-0.7,0.1-1.1,0.3
			c-0.3,0.2-0.6,0.5-0.8,0.9c-0.2,0.4-0.3,0.8-0.3,1.2v4.5h-1V54.1H112.3z"/>
		<path class="st0" d="M121.8,54.7c0,0.2-0.1,0.4-0.2,0.5s-0.3,0.2-0.5,0.2s-0.4-0.1-0.5-0.2c-0.1-0.1-0.2-0.3-0.2-0.5
			s0.1-0.4,0.2-0.5s0.3-0.2,0.5-0.2s0.4,0.1,0.5,0.2C121.7,54.4,121.8,54.5,121.8,54.7z M121.6,64.6h-1v-7.9h1V64.6z"/>
		<path class="st0" d="M123.5,56.8h1v0.9c0.3-0.3,0.7-0.6,1.1-0.8s0.8-0.3,1.3-0.3s1,0.1,1.5,0.3c0.5,0.2,0.8,0.6,1.2,1l-0.8,0.6
			c-0.2-0.3-0.5-0.5-0.8-0.7s-0.6-0.2-1-0.2s-0.8,0.1-1.2,0.4c-0.4,0.2-0.6,0.6-0.9,1c-0.2,0.4-0.3,0.9-0.3,1.4v4.2h-1L123.5,56.8
			L123.5,56.8z"/>
		<path class="st0" d="M135.9,64.2c-0.6-0.4-1-0.8-1.3-1.5c-0.3-0.6-0.5-1.3-0.5-2.1s0.2-1.4,0.5-2.1c0.3-0.6,0.8-1.1,1.3-1.5
			c0.6-0.4,1.2-0.5,1.9-0.5c0.5,0,1,0.1,1.4,0.3c0.5,0.2,0.9,0.5,1.2,0.9V54h1v10.5h-1v-1.1c-0.3,0.4-0.7,0.7-1.2,0.9
			c-0.5,0.2-0.9,0.3-1.5,0.3C137.1,64.8,136.5,64.6,135.9,64.2z M139.1,63.3c0.4-0.3,0.7-0.6,1-1.1c0.2-0.5,0.4-1,0.4-1.5
			c0-0.6-0.1-1.1-0.4-1.5c-0.2-0.5-0.6-0.8-1-1.1s-0.9-0.4-1.3-0.4c-0.5,0-0.9,0.1-1.3,0.4c-0.4,0.3-0.7,0.6-1,1.1
			c-0.2,0.5-0.4,1-0.4,1.5c0,0.6,0.1,1.1,0.4,1.5c0.2,0.5,0.6,0.8,1,1.1s0.8,0.4,1.3,0.4S138.7,63.6,139.1,63.3z"/>
		<path class="st0" d="M144.4,64.4c-0.5-0.2-0.9-0.5-1.1-0.9c-0.3-0.4-0.4-0.8-0.4-1.3s0.1-0.9,0.4-1.3c0.3-0.4,0.7-0.7,1.1-0.9
			c0.5-0.2,1-0.3,1.6-0.3c0.8,0,1.5,0.2,2.1,0.6v-0.6c0-0.6-0.2-1.1-0.6-1.4c-0.4-0.4-0.9-0.6-1.6-0.6c-0.4,0-0.7,0.1-1.1,0.2
			c-0.3,0.2-0.6,0.4-0.8,0.7l-0.9-0.6c0.3-0.4,0.7-0.8,1.2-1s1-0.4,1.6-0.4s1.2,0.1,1.6,0.4c0.5,0.3,0.9,0.6,1.2,1.1s0.4,1,0.4,1.6
			v5h-1v-0.5c-0.6,0.4-1.3,0.6-2.1,0.6C145.5,64.8,144.9,64.7,144.4,64.4z M147.5,63.3c0.4-0.3,0.6-0.7,0.6-1.1
			c0-0.4-0.2-0.8-0.6-1.1c-0.4-0.3-0.9-0.4-1.5-0.4s-1.1,0.1-1.5,0.4c-0.4,0.3-0.6,0.7-0.6,1.1c0,0.4,0.2,0.8,0.6,1.1
			c0.4,0.3,0.9,0.4,1.5,0.4S147.1,63.6,147.5,63.3z"/>
		<path class="st0" d="M150.9,56.8h1v0.7c0.3-0.3,0.6-0.5,1-0.6s0.7-0.2,1.1-0.2c0.6,0,1.1,0.2,1.6,0.5s0.9,0.7,1.1,1.3
			c0.3,0.5,0.4,1.1,0.4,1.7v4.5h-1v-4.5c0-0.4-0.1-0.8-0.3-1.2s-0.4-0.7-0.8-0.9c-0.3-0.2-0.7-0.3-1.1-0.3c-0.4,0-0.7,0.1-1.1,0.3
			c-0.3,0.2-0.6,0.5-0.8,0.9s-0.3,0.8-0.3,1.2v4.5h-1v-7.9H150.9z"/>
		<path class="st0" d="M164.9,64.5c-0.5-0.2-0.9-0.5-1.2-0.9v1.1h-1V54.1h1v3.7c0.3-0.4,0.7-0.7,1.2-0.9s0.9-0.3,1.4-0.3
			c0.7,0,1.3,0.2,1.9,0.5c0.6,0.4,1,0.9,1.3,1.5s0.5,1.3,0.5,2.1s-0.2,1.4-0.5,2.1c-0.3,0.6-0.8,1.1-1.3,1.5
			c-0.6,0.4-1.2,0.5-1.9,0.5C165.8,64.8,165.4,64.7,164.9,64.5z M167.7,63.3c0.4-0.3,0.7-0.6,1-1.1c0.2-0.5,0.4-1,0.4-1.5
			c0-0.6-0.1-1.1-0.4-1.5c-0.2-0.5-0.6-0.8-1-1.1s-0.9-0.4-1.3-0.4c-0.5,0-0.9,0.1-1.3,0.4c-0.4,0.3-0.7,0.6-1,1.1
			c-0.2,0.5-0.4,1-0.4,1.5c0,0.6,0.1,1.1,0.4,1.5c0.2,0.5,0.6,0.8,1,1.1s0.8,0.4,1.3,0.4C166.8,63.7,167.3,63.6,167.7,63.3z"/>
		<path class="st0" d="M172.8,64.4c-0.5-0.2-0.9-0.5-1.1-0.9c-0.3-0.4-0.4-0.8-0.4-1.3s0.1-0.9,0.4-1.3c0.3-0.4,0.7-0.7,1.1-0.9
			c0.5-0.2,1-0.3,1.6-0.3c0.8,0,1.5,0.2,2.1,0.6v-0.6c0-0.6-0.2-1.1-0.6-1.4c-0.4-0.4-0.9-0.6-1.6-0.6c-0.4,0-0.7,0.1-1.1,0.2
			c-0.3,0.2-0.6,0.4-0.8,0.7l-0.9-0.6c0.3-0.4,0.7-0.8,1.2-1s1-0.4,1.6-0.4s1.2,0.1,1.7,0.4c0.5,0.3,0.9,0.6,1.2,1.1s0.4,1,0.4,1.6
			v5h-1v-0.5c-0.6,0.4-1.3,0.6-2.1,0.6C173.9,64.8,173.3,64.7,172.8,64.4z M175.9,63.3c0.4-0.3,0.6-0.7,0.6-1.1
			c0-0.4-0.2-0.8-0.6-1.1c-0.4-0.3-0.9-0.4-1.5-0.4s-1.1,0.1-1.5,0.4c-0.4,0.3-0.6,0.7-0.6,1.1c0,0.4,0.2,0.8,0.6,1.1
			c0.4,0.3,0.9,0.4,1.5,0.4S175.5,63.6,175.9,63.3z"/>
		<path class="st0" d="M184.1,64.3c-0.4,0.3-0.9,0.5-1.4,0.5s-0.9-0.1-1.3-0.4c-0.4-0.3-0.7-0.6-0.9-1s-0.3-0.9-0.3-1.4v-4.2h-1.6
			v-1.1h1.6v-2.6h1.1v2.6h2.3v1.1h-2.3V62c0,0.5,0.1,0.9,0.4,1.2c0.3,0.3,0.6,0.5,1.1,0.5c0.3,0,0.6-0.1,0.8-0.3L184.1,64.3z"/>
		<path class="st0" d="M186.7,54.7c0,0.2-0.1,0.4-0.2,0.5c-0.1,0.1-0.3,0.2-0.5,0.2s-0.4-0.1-0.5-0.2c-0.1-0.1-0.2-0.3-0.2-0.5
			s0.1-0.4,0.2-0.5c0.1-0.1,0.3-0.2,0.5-0.2s0.4,0.1,0.5,0.2C186.6,54.4,186.7,54.5,186.7,54.7z M186.5,64.6h-1v-7.9h1V64.6z"/>
		<path class="st0" d="M188.4,56.8h1.1v0.7c0.3-0.3,0.6-0.5,1-0.6s0.7-0.2,1.1-0.2c0.6,0,1.1,0.2,1.6,0.5s0.9,0.7,1.1,1.3
			c0.3,0.5,0.4,1.1,0.4,1.7v4.5h-1.1v-4.5c0-0.4-0.1-0.8-0.3-1.2s-0.4-0.7-0.8-0.9c-0.3-0.2-0.7-0.3-1.1-0.3c-0.4,0-0.7,0.1-1.1,0.3
			c-0.3,0.2-0.6,0.5-0.8,0.9s-0.3,0.8-0.3,1.2v4.5h-1.1v-7.9H188.4z"/>
		<path class="st0" d="M197.9,63.9c0,0.2-0.1,0.4-0.2,0.6c-0.2,0.2-0.4,0.2-0.6,0.2c-0.2,0-0.4-0.1-0.6-0.2
			c-0.2-0.2-0.2-0.4-0.2-0.6c0-0.2,0.1-0.4,0.2-0.6c0.2-0.2,0.4-0.2,0.6-0.2c0.2,0,0.4,0.1,0.6,0.2
			C197.8,63.5,197.9,63.7,197.9,63.9z"/>
	</g>
</g>
</svg>
